# xmcd
#
# Track frame offsets:
#	150
#	15917
#	32722
#	50040
#	67782
#	87737
#	101252
#	119630
#	134867
#	151937
#
# Disc length: 2373 seconds
#
# Revision: 0
# Processed by: cddbd v1.5.2PL0 Copyright (c) Steve Scherf et al.
# Submitted via: AudioConverter v8.05 Copyright (c) D.R. Software
#
DISCID=8309430a
DTITLE=Fast Buck - Country Cuts
DYEAR=1900
DGENRE=Country
TTITLE0=Down Down
TTITLE1=Can't Give You More
TTITLE2=Claudie
TTITLE3=Caroline
TTITLE4=Mean Girl
TTITLE5=Shady Lady
TTITLE6=I Saw The Light
TTITLE7=Nightride
TTITLE8=Living On An Island
TTITLE9=Dirty Water
EXTD=
EXTT0=
EXTT1=
EXTT2=
EXTT3=
EXTT4=
EXTT5=
EXTT6=
EXTT7=
EXTT8=
EXTT9=
PLAYORDER=
